<svg xmlns="http://www.w3.org/2000/svg" width="180" height="180"><defs><linearGradient x1="15.261%" y1="51.61%" x2="96.492%" y2="51.61%" id="a"><stop stop-color="#50A5E0" offset="0%"/><stop stop-color="#F0656F" offset="53.898%"/><stop stop-color="#F0606F" offset="100%"/></linearGradient></defs><g fill="none"><path d="M2.507 84.333L37.27 49.57a8.353 8.353 0 0 1 11.816 0 8.353 8.353 0 0 1 0 11.816L26.14 84.333a8.353 8.353 0 0 0 0 11.816l57.71 57.711a8.353 8.353 0 0 0 11.817 0l57.71-57.71a8.353 8.353 0 0 0 0-11.817L130.43 61.386a8.353 8.353 0 0 1 0-11.816 8.353 8.353 0 0 1 11.816 0l34.763 34.763a8.353 8.353 0 0 1 0 11.816l-81.342 81.344a8.353 8.353 0 0 1-11.816 0L2.508 96.151a8.357 8.357 0 0 1-.001-11.818z" fill="#3AB982"/><path d="M123.347 92.873c3.799 3.88 3.799 10.166 0 14.043l-26.711 27.275a9.582 9.582 0 0 1-13.754 0L56.17 106.916c-3.8-3.879-3.8-10.166 0-14.043a9.582 9.582 0 0 1 13.754 0L82.88 106.1a9.582 9.582 0 0 0 13.754 0l12.955-13.228a9.587 9.587 0 0 1 13.758 0z" fill="#34495F"/><path d="M154 116c14.36 0 26-11.64 26-26s-11.64-26-26-26-26 11.64-26 26 11.64 26 26 26zm.49-11.774c-7.585 0-13.735-6.15-13.735-13.735 0-7.586 6.15-13.736 13.736-13.736s13.735 6.15 13.735 13.736-6.15 13.735-13.735 13.735z" fill="url(#a)" transform="rotate(-90 90 90)"/></g></svg>