<svg width="310" height="82" viewBox="0 0 161 42" xmlns="http://www.w3.org/2000/svg"><g fill="#20a0ff" fill-rule="evenodd"><path d="M157.083 28.911s.315-.008.913 0c.597.008.76.457.76.457s1.2 2.206 1.52 2.739c.287.475-.056.466-.135.458l-.016-.002.016.002c-.004.005-.34.016-3.818-.002-4.85-.658-5.018-5.021-5.018-5.021V19.78h-2.737v-2.892c0-.394.456-.456.456-.456h2.28v-2.891c0-.472.457-.61.457-.61l2.54-.725c.383-.11.501.117.501.117s.152-.08.152.268v3.993h3.954c.385 0 .456.457.456.457v2.89h-4.41v6.697c0 1.946 2.13 2.282 2.13 2.282zm-11.709 3.348h-2.433c-.477 0-.456-.609-.456-.609V20.39c0-.685-.912-.914-.912-.914h-5.018c-.749 0-.76.913-.76.913v11.414c0 .447-.457.456-.457.456h-2.433c-.535 0-.456-.609-.456-.609V17.498c0-1.137 1.368-1.37 1.368-1.37h10.645c1.063 0 1.369 1.37 1.369 1.37v14c0 .796-.457.761-.457.761zm-17.335-6.391h-9.428v2.282c0 .823 1.064 1.066 1.064 1.066h7.604c.54 0 .912.456.912.456s.663 1.38.912 1.978c.25.598-.456.61-.456.61h-11.405c-1.373 0-1.672-1.675-1.672-1.675V17.65c0-.744 1.064-1.065 1.064-1.065h11.405c1.146 0 1.369 1.37 1.369 1.37v6.543c0 1.104-1.369 1.37-1.369 1.37zm-1.673-5.479s-.096-.76-.76-.76h-6.235s-.76.204-.76.76v1.674s.022.761.76.761h6.235s.76-.188.76-.913V20.39zm-14.294 11.87h-2.433c-.32 0-.456-.456-.456-.456V20.389c0-.707-.912-.913-.912-.913h-2.281c-.637 0-.76.913-.76.913v11.414c0 .378-.457.456-.457.456h-2.433c-.338 0-.456-.456-.456-.456V20.389c0-.723-.913-.913-.913-.913h-2.28c-.697 0-.76.913-.76.913v11.414c0 .488-.457.456-.457.456H95.04c-.456 0-.456-.456-.456-.456V17.346c0-.838 1.216-1.217 1.216-1.217h15.207c1.22 0 1.52 1.521 1.52 1.521v14.153c0 .525-.456.456-.456.456zm-22.05-6.391h-9.427v2.282c0 .823 1.064 1.066 1.064 1.066h7.603c.541 0 .913.456.913.456s.663 1.38.912 1.978c.25.598-.456.61-.456.61H79.226c-1.373 0-1.673-1.675-1.673-1.675V17.65c0-.744 1.065-1.065 1.065-1.065h11.405c1.146 0 1.368 1.37 1.368 1.37v6.543c0 1.104-1.368 1.37-1.368 1.37zm-1.672-5.479s-.096-.76-.76-.76h-6.235s-.76.204-.76.76v1.674s.022.761.76.761h6.235s.76-.188.76-.913V20.39zM75.272 32.26h-5.778s-4.229-.2-4.562-4.413c-.013-4.327 0-17.805 0-17.805h2.737s.913-.016.913.914v15.978s.317 1.322 2.128 1.826c2.047-.01 2.433 0 2.433 0s.793-.254 1.37.761c.575 1.015 1.216 2.13 1.216 2.13s.091.61-.457.61zm-29.348-.913V11.26c0-.89.76-1.065.76-1.065h14.294c.8 0 .456.913.456.913s-.445 1.234-.76 1.826c-.315.591-.912.609-.912.609h-9.276a.843.843 0 0 0-.913.76v5.022h10.493c.615 0 .304.761.304.761s-.786 1.676-1.064 2.13c-.279.455-.913.457-.913.457h-8.82v5.326c0 .726.76.913.76.913h9.733c.706 0 .912.457.912.457s.964 1.505 1.369 2.13c.405.626-.152.761-.152.761H46.836c-.634 0-.912-.913-.912-.913zm-9.134-1.263c-.01 1.743-.916 2.131-.916 2.131s-15.623 9.028-16.64 9.594c-1.006.432-1.678 0-1.678 0S1.208 32.327.61 31.91C.014 31.493 0 30.844 0 30.844S.016 12.069 0 11.2c-.017-.87 1.068-1.523 1.068-1.523L17.403.236c1.006-.53 1.985 0 1.985 0s14.43 8.387 16.028 9.289c1.568.745 1.374 2.284 1.374 2.284s.01 16.654 0 18.274zM30.4 11.24a6815.427 6815.427 0 0 1-11.224-6.49s-.768-.416-1.558 0L4.793 12.137s-.852.512-.84 1.192c.014.68 0 15.374 0 15.374s.012.508.48.834c.469.326 13.304 7.746 13.304 7.746s.528.338 1.318 0c.798-.443 13.065-7.508 13.065-7.508s.71-.304.719-1.668c.002-.394.003-1.92.003-3.84L18.4 33.02v-3.348c0-1.375 1.065-2.282 1.065-2.282l12.774-7.698c.482-.503.581-1.31.602-1.615l-.002-3.393L18.4 23.433v-3.5c0-1.375.912-1.978.912-1.978L30.4 11.24z"/><path d="M157.083 28.911s.315-.008.913 0c.597.008.76.457.76.457s1.2 2.206 1.52 2.739c.287.475-.056.466-.135.458l-.016-.002.016.002c-.004.005-.34.016-3.818-.002-4.85-.658-5.018-5.021-5.018-5.021V19.78h-2.737v-2.892c0-.394.456-.456.456-.456h2.28v-2.891c0-.472.457-.61.457-.61l2.54-.725c.383-.11.501.117.501.117s.152-.08.152.268v3.993h3.954c.385 0 .456.457.456.457v2.89h-4.41v6.697c0 1.946 2.13 2.282 2.13 2.282zm-11.709 3.348h-2.433c-.477 0-.456-.609-.456-.609V20.39c0-.685-.912-.914-.912-.914h-5.018c-.749 0-.76.913-.76.913v11.414c0 .447-.457.456-.457.456h-2.433c-.535 0-.456-.609-.456-.609V17.498c0-1.137 1.368-1.37 1.368-1.37h10.645c1.063 0 1.369 1.37 1.369 1.37v14c0 .796-.457.761-.457.761zm-17.335-6.391h-9.428v2.282c0 .823 1.064 1.066 1.064 1.066h7.604c.54 0 .912.456.912.456s.663 1.38.912 1.978c.25.598-.456.61-.456.61h-11.405c-1.373 0-1.672-1.675-1.672-1.675V17.65c0-.744 1.064-1.065 1.064-1.065h11.405c1.146 0 1.369 1.37 1.369 1.37v6.543c0 1.104-1.369 1.37-1.369 1.37zm-1.673-5.479s-.096-.76-.76-.76h-6.235s-.76.204-.76.76v1.674s.022.761.76.761h6.235s.76-.188.76-.913V20.39zm-14.294 11.87h-2.433c-.32 0-.456-.456-.456-.456V20.389c0-.707-.912-.913-.912-.913h-2.281c-.637 0-.76.913-.76.913v11.414c0 .378-.457.456-.457.456h-2.433c-.338 0-.456-.456-.456-.456V20.389c0-.723-.913-.913-.913-.913h-2.28c-.697 0-.76.913-.76.913v11.414c0 .488-.457.456-.457.456H95.04c-.456 0-.456-.456-.456-.456V17.346c0-.838 1.216-1.217 1.216-1.217h15.207c1.22 0 1.52 1.521 1.52 1.521v14.153c0 .525-.456.456-.456.456zm-22.05-6.391h-9.427v2.282c0 .823 1.064 1.066 1.064 1.066h7.603c.541 0 .913.456.913.456s.663 1.38.912 1.978c.25.598-.456.61-.456.61H79.226c-1.373 0-1.673-1.675-1.673-1.675V17.65c0-.744 1.065-1.065 1.065-1.065h11.405c1.146 0 1.368 1.37 1.368 1.37v6.543c0 1.104-1.368 1.37-1.368 1.37zm-1.672-5.479s-.096-.76-.76-.76h-6.235s-.76.204-.76.76v1.674s.022.761.76.761h6.235s.76-.188.76-.913V20.39zM75.272 32.26h-5.778s-4.229-.2-4.562-4.413c-.013-4.327 0-17.805 0-17.805h2.737s.913-.016.913.914v15.978s.317 1.322 2.128 1.826c2.047-.01 2.433 0 2.433 0s.793-.254 1.37.761c.575 1.015 1.216 2.13 1.216 2.13s.091.61-.457.61zm-29.348-.913V11.26c0-.89.76-1.065.76-1.065h14.294c.8 0 .456.913.456.913s-.445 1.234-.76 1.826c-.315.591-.912.609-.912.609h-9.276a.843.843 0 0 0-.913.76v5.022h10.493c.615 0 .304.761.304.761s-.786 1.676-1.064 2.13c-.279.455-.913.457-.913.457h-8.82v5.326c0 .726.76.913.76.913h9.733c.706 0 .912.457.912.457s.964 1.505 1.369 2.13c.405.626-.152.761-.152.761H46.836c-.634 0-.912-.913-.912-.913zm-9.134-1.263c-.01 1.743-.916 2.131-.916 2.131s-15.623 9.028-16.64 9.594c-1.006.432-1.678 0-1.678 0S1.208 32.327.61 31.91C.014 31.493 0 30.844 0 30.844S.016 12.069 0 11.2c-.017-.87 1.068-1.523 1.068-1.523L17.403.236c1.006-.53 1.985 0 1.985 0s14.43 8.387 16.028 9.289c1.568.745 1.374 2.284 1.374 2.284s.01 16.654 0 18.274zM30.4 11.24a6815.427 6815.427 0 0 1-11.224-6.49s-.768-.416-1.558 0L4.793 12.137s-.852.512-.84 1.192c.014.68 0 15.374 0 15.374s.012.508.48.834c.469.326 13.304 7.746 13.304 7.746s.528.338 1.318 0c.798-.443 13.065-7.508 13.065-7.508s.71-.304.719-1.668c.002-.394.003-1.92.003-3.84L18.4 33.02v-3.348c0-1.375 1.065-2.282 1.065-2.282l12.774-7.698c.482-.503.581-1.31.602-1.615l-.002-3.393L18.4 23.433v-3.5c0-1.375.912-1.978.912-1.978L30.4 11.24z"/></g></svg>