<svg xmlns="http://www.w3.org/2000/svg" height="136.714" width="381.348"><path d="M23.184 111.73L12.96 136.282c-.18.432-.36.432-.72.432h-1.152c-.396 0-.54-.036-.684-.432L.18 111.73c-.18-.396 0-.792.54-.792h1.836c.684 0 .756.504 1.476 2.268l7.632 18.864 7.668-18.864c.72-1.764.756-2.268 1.476-2.268h1.836c.36 0 .612.18.612.468 0 .108-.036.216-.072.324zm23.976-1.224c.324 0 .684.18.684.54v15.084c0 5.94-4.68 10.584-10.62 10.584-5.724 0-10.548-4.824-10.548-10.584v-15.084c0-.288.216-.54.504-.54h1.944c.288 0 .576.252.576.54v14.616c0 4.572 3.06 8.172 7.668 8.172 4.752 0 7.488-3.744 7.488-8.172v-14.616c0-.324.288-.54.612-.54h1.692zm4.68 26.208c-.396 0-.576-.18-.576-.576v-24.696c0-.36.216-.504.576-.504h17.028c.36 0 .54.18.54.54v1.8c0 .432-.18.648-.576.648H54.288v4.32h11.556c.324 0 .54.288.54.612v1.8c0 .324-.216.612-.54.612H54.288v4.464h11.556c.324 0 .54.252.54.576v1.836c0 .288-.216.612-.54.612H54.288v4.968h14.436c.36 0 .648.216.648.612v1.764c0 .396-.216.612-.612.612H51.84zm34.524 0c-.396 0-.576-.18-.576-.576v-24.696c0-.36.216-.504.576-.504h17.028c.36 0 .54.18.54.54v1.8c0 .432-.18.648-.576.648H88.812v4.32h11.556c.324 0 .54.288.54.612v1.8c0 .324-.216.612-.54.612H88.812v4.464h11.556c.324 0 .54.252.54.576v1.836c0 .288-.216.612-.54.612H88.812v4.968h14.436c.36 0 .648.216.648.612v1.764c0 .396-.216.612-.612.612h-16.92zm36.576 0h-15.048c-.36 0-.54-.18-.54-.54v-24.696c0-.396.252-.54.576-.54h1.836c.36 0 .54.216.54.54v22.248h12.636c.36 0 .54.324.54.612v1.836c-.036.324-.216.504-.54.54zm4.536 0c-.396 0-.576-.18-.576-.576v-24.696c0-.36.216-.504.576-.504h17.028c.36 0 .54.18.54.54v1.8c0 .432-.18.648-.576.648h-14.544v4.32h11.556c.324 0 .54.288.54.612v1.8c0 .324-.216.612-.54.612h-11.556v4.464h11.556c.324 0 .54.252.54.576v1.836c0 .288-.216.612-.54.612h-11.556v4.968h14.436c.36 0 .648.216.648.612v1.764c0 .396-.216.612-.612.612h-16.92zm37.296-16.992l3.456-8.352c.18-.396.324-.432.72-.432h1.152c.396 0 .54.036.684.432l10.224 24.552c.036.108.072.216.072.324 0 .288-.216.468-.576.468h-1.836c-.72 0-.792-.504-1.476-2.304l-7.668-18.828-7.668 18.828c-.72 1.8-.756 2.304-1.476 2.304h-1.836c-.396 0-.612-.18-.612-.468 0-.108.036-.216.072-.324l5.22-12.492c-1.08-2.628-2.16-5.256-3.168-7.884l-7.668 18.864c-.72 1.8-.792 2.304-1.476 2.304h-1.836c-.396 0-.612-.18-.612-.468 0-.108 0-.216.072-.324l10.224-24.588c.144-.324.324-.396.684-.396h1.152c.396 0 .54 0 .72.432zm20.304 16.992c-.396 0-.576-.18-.576-.576v-24.696c0-.36.216-.504.576-.504h17.028c.36 0 .54.18.54.54v1.8c0 .432-.18.648-.576.648h-14.544v4.32h11.556c.324 0 .54.288.54.612v1.8c0 .324-.216.612-.54.612h-11.556v4.464h11.556c.324 0 .54.252.54.576v1.836c0 .288-.216.612-.54.612h-11.556v4.968h14.436c.36 0 .648.216.648.612v1.764c0 .396-.216.612-.612.612h-16.92zm42.228-25.812h.18c.54 0 .684.252.684.576l-.18 24.696c0 .36-.216.54-.648.54h-2.304l-15.984-21.6v13.392l6.3.036c.324 0 .54.252.54.576v1.836c0 .324-.216.612-.576.612l-8.712-.036c-.36 0-.54-.18-.54-.468V111.37c0-.324.252-.576.612-.576h2.484a.7.7 0 0 1 .576.288l15.3 20.628.144-20.268c0-.288.252-.54.54-.54h1.584zm-8.82 22.788c.324 0 .54.252.54.576v1.836c0 .324-.252.612-.576.612h-11.844c-.324 0-.54-.18-.54-.54v-1.836c0-.36.18-.648.576-.648h11.844zm27.072-22.752c.324 0 .576.216.648.54v1.764c0 .432-.252.684-.648.684h-7.56v22.212a.6.6 0 0 1-.612.576h-1.8a.569.569 0 0 1-.576-.576v-24.66c0-.324.252-.54.576-.54h9.972zm29.412.432s10.584 24.444 10.584 24.48c.108.252.108.324.108.432 0 .288-.216.432-.612.432h-21.78c-.396 0-.684-.216-.684-.54 0-.108 0-.216.072-.324l10.728-24.48c.18-.36.36-.468.756-.468h.108c.468 0 .54.108.72.468zm-.792 5.148l-7.308 17.136h14.58zm15.48 20.196c-.324 0-.576-.144-.576-.504v-24.66c0-.396.18-.612.576-.612h8.28c7.128 0 12.996 5.652 12.996 12.924 0 7.416-6.192 12.852-12.996 12.852h-8.28zm2.376-22.824v19.872h5.796c5.76 0 10.116-4.572 10.116-10.188 0-5.76-4.608-9.684-10.008-9.684h-5.904zm38.628 5.832l3.456-8.352c.18-.396.324-.432.72-.432h1.152c.396 0 .54.036.684.432l10.224 24.552c.036.108.072.216.072.324 0 .288-.216.468-.576.468h-1.836c-.72 0-.792-.504-1.476-2.304l-7.668-18.828-7.668 18.828c-.72 1.8-.756 2.304-1.476 2.304h-1.836c-.396 0-.612-.18-.612-.468 0-.108.036-.216.072-.324l5.22-12.492c-1.08-2.628-2.16-5.256-3.168-7.884l-7.668 18.864c-.72 1.8-.792 2.304-1.476 2.304h-1.836c-.396 0-.612-.18-.612-.468 0-.108 0-.216.072-.324l10.224-24.588c.144-.324.324-.396.684-.396h1.152c.396 0 .54 0 .72.432zm20.268-8.784h1.872c.468 0 .612.252.612.576v24.66c0 .36-.252.54-.612.54h-1.872c-.36 0-.54-.18-.54-.54v-24.696a.53.53 0 0 1 .54-.54zm29.556-.036h.18c.54 0 .684.252.684.576l-.18 24.696c0 .36-.216.54-.648.54h-2.304l-15.984-21.6v13.392l6.3.036c.324 0 .54.252.54.576v1.836c0 .324-.216.612-.576.612l-8.712-.036c-.36 0-.54-.18-.54-.468V111.37c0-.324.252-.576.612-.576h2.484a.7.7 0 0 1 .576.288l15.3 20.628.144-20.268c0-.288.252-.54.54-.54h1.584zm-8.82 22.788c.324 0 .54.252.54.576v1.836c0 .324-.252.612-.576.612h-11.844c-.324 0-.54-.18-.54-.54v-1.836c0-.36.18-.648.576-.648h11.844z" xmlns:name="mainText_mainfill" fill="#4fc08d"/><path d="M198.055 85.532a83.258 83.258 0 0 1-27.347 8.517 31.755 31.755 0 0 1-18.55-3.112 25.472 25.472 0 0 1-10.752-11.649 44.262 44.262 0 0 1-3.99-17.114 73.803 73.803 0 0 1 1.876-19.508 82.839 82.839 0 0 1 6.702-18.81 58.544 58.544 0 0 1 10.551-15.02A29.8 29.8 0 0 1 169.93.658a25.412 25.412 0 0 1 6.98-.618 57.566 57.566 0 0 1 8.577.997c3.052.559 6.263 1.337 9.535 2.294s6.582 1.995 9.853 3.251 6.463 2.534 9.515 3.99 5.984 2.792 8.537 4.228a74.86 74.86 0 0 1 6.902 4.21 28.265 28.265 0 0 1 4.647 3.989 43.424 43.424 0 0 1 6.643 9.275 24.834 24.834 0 0 1 2.732 8.756 20.605 20.605 0 0 1-.818 8.298 27.467 27.467 0 0 1-3.989 7.88 47.433 47.433 0 0 1-6.862 7.52 85.771 85.771 0 0 1-9.355 7.22c-3.49 2.374-7.34 4.687-11.489 6.981s-8.597 4.349-13.284 6.603z" xmlns:name="monogram_container_inversefill" fill="#4fc08d"/><path d="M186.662 69.286q-.427 0-.488-.122-.793-1.342-1.586-2.806-.061-1.403-.64-2.593t-1.251-2.409q-.427-.854-.427-1.525.06-.732-.397-1.25t-.64-1.19-.183-1.342-.488-1.281q-.488-.488-.427-.915.06-.915-.366-1.617t-.732-1.433q-.244-.61-.244-1.312t-.488-1.25q-.488-.61-.427-1.312t-.244-1.311-.64-1.159-.336-1.342q.06-.244-.03-.488t-.214-.549q-.122-.366-.336-.702t-.335-.762q-.122-.366-.153-.763t-.03-.762q-.305-.427-.519-.763t-.457-.701q-.061-.427-.061-.824t-.061-.823q-.366-.793-.915-1.556t-.061-1.738q-.366-.488-.61-.885t-.55-.884q0-.305-.03-.702t.092-.762q.122-.915 1.037-1.037.244 0 .457-.183t.397-.305q-.244-.305-.55-.397t-.64-.091-.701-.03-.671-.214q-.61-.488-.55-1.159l.123-1.342q.244-.122.457-.336t.458-.213q1.22-.061 2.44-.03t2.379.03q.244.305.457.488t.275.427q.122.671.488.915t1.037.305q.305 0 .549.03t.549.031q.244.305.366.518t.183.427.122.58.122.976q.366.549.976 1.525.06.549.06 1.22t.062 1.403q.67 1.403 1.433 2.806t.824 3.05q.427.61.762 1.159t.214 1.342q-.061.61.305 1.037t.549.915.213 1.037.153 1.098q.244.366.457.701t.397.702q0 .61-.153 1.006t-.884.519q-.244.061-.397.244t-.396.305q.854.427 1.311.671t.763.518.488.641l.488.976q.305.488.518.945t.519.946q.244 1.037.122 2.165t.366 2.166q.793-.976 1.19-1.8t.579-1.738q.06-.305.091-.549t.153-.549q.122-.366.366-.702t.427-.701q.06-.671.091-1.342t.092-1.281q.305-.549.61-1.068t.305-1.006q.122-.854.488-1.556t.61-1.494q.183-.793.335-1.556t.64-1.494q.184-.244.245-.58t.06-.701.062-.671.305-.61q.488-.61.549-1.281t.183-1.342q.122-.366.396-.732t.58-.915q0-.488.03-1.129t.092-1.433q.488-.915.945-1.891t1.129-2.196q0-.549.06-1.281t.123-1.586q.244-.122.457-.336t.458-.213q2.074-.061 4.117-.061h4.057q.793.549.67 1.22t-.06 1.281l-.915.732q-.915 0-1.86.03t-1.922.092q-.122 0-.427.305.122.183.305.335t.305.336h2.684q.427.305.64.64t.092.702q-.488 1.037-1.007 1.982t-1.067 1.983q0 .61-.03 1.281t-.092 1.342q-.305.61-.702 1.159t-.335 1.281q.122.793-.336 1.311t-.64 1.19q-.122.671-.519 1.22t-.701 1.22v2.867q0 .061-.427.396t-.55.824q-.243.976-.914 1.952-.061.122-.153.244t-.091.244q.183.61 0 1.098t-.458.976-.518.976-.183 1.037q.06.793-.366 1.311t-.732 1.19v1.525q-.305.671-.763 1.19t-.335 1.311q.122.671-.183 1.037-1.098 1.342-.976 3.05-1.037 1.525-1.22 3.599-.488.671-.824 1.342t-.396 1.464h-6.954q-.305 0-.55-.061t-.548-.183q-.488-.366-.458-.915t-.091-1.037h1.525q.67-.61 1.372-.885t1.373-.64l-.915-1.83q.183-.122.396-.183t.397-.183q.06 0 .06-.122t-.06-.183q-.244-.244-.366-.061t-.366.854h-1.525q-.61.671-.824 1.464t-.884 1.342q-.061.061-.03.213t-.031.275zm-8.906-40.138q-.55-.793-1.342-.61-.671.183-.427.61.122.427.366.305.366-.061.701-.122t.702-.183zm9.089 34.038q.244.122.427.244t.427.244q.305.122.549 0t.305-.427q0-.244-.244-.397t-.55-.091q-.243.061-.457.183t-.457.244zm15.616-20.069q-.183.183-.183.305.122.305.305.305.305 0 .305-.305.122-.488-.427-.305zm-24.827-4.148q-.122-.122-.183-.244t-.122-.122q-.854.305-.061.671.06.061.152-.061t.214-.244zm27.267-6.283q.244-.244.366-.305-.122-.122-.183-.214t-.183-.152q-.488 0-.305.488.06.061.305.183z" xmlns:name="symbol_mainfill" fill="#36495d"/></svg>